<svg id="Capa_1" enable-background="new 0 0 512 512" height="512" viewBox="0 0 512 512" width="512" xmlns="http://www.w3.org/2000/svg"><circle cx="256" cy="256" fill="#1dd882" r="256"/><path d="m160.687 401.352 110.221 110.221c134.447-7.72 241.092-119.192 241.092-255.573 0-12.789-.938-25.359-2.749-37.645l-90.446-90.446z" fill="#06bf51"/><path d="m325.583 402.038-69.583 46.687-69.584-46.688c-48.89-32.803-78.223-87.808-78.223-146.683v-117.828l147.806-67.873 147.807 67.873v117.828c0 58.876-29.333 113.881-78.223 146.684z" fill="#fa0"/><path d="m403.806 137.527-147.806-67.872v379.071l69.583-46.687c48.89-32.803 78.223-87.808 78.223-146.683z" fill="#ff9500"/><path d="m256 466.789-77.941-52.295c-53.14-35.655-84.865-95.146-84.865-159.139l-.001-127.446 162.807-74.761 162.807 74.761v127.446c.001 63.992-31.725 123.484-84.865 159.14zm-132.808-319.644.001 108.21c0 53.975 26.759 104.153 71.58 134.227l61.227 41.08 61.226-41.079c44.822-30.074 71.581-80.252 71.58-134.227v-108.21l-132.807-60.986z" fill="#ffce00"/><path d="m256 53.149v33.011l132.806 60.985v108.21c.001 53.975-26.758 104.153-71.58 134.227l-61.226 41.08v36.127l77.94-52.294c53.141-35.656 84.866-95.147 84.865-159.14v-127.446z" fill="#fdba12"/><path d="m308.806 262.896h-30v-58.667c0-30.327 24.673-55 55-55s55 24.673 55 55h-30c0-13.785-11.215-25-25-25s-25 11.215-25 25z" fill="#fff"/><path d="m303.539 313.521h-93.509c-12.484 0-22.605-10.121-22.605-22.605v-72.896h138.719v72.896c0 12.484-10.121 22.605-22.605 22.605z" fill="#555a66"/><path d="m256.115 218.02v95.501h47.424c12.484 0 22.605-10.121 22.605-22.605v-72.896z" fill="#414952"/><path d="m257.626 279.912h-1.682c-6.097 0-11.039-4.942-11.039-11.039v-19.366c0-6.097 4.942-11.039 11.039-11.039h1.682c6.097 0 11.039 4.942 11.039 11.039v19.366c0 6.097-4.943 11.039-11.039 11.039z" fill="#333940"/><path d="m257.625 238.467h-1.51v41.445h1.51c6.097 0 11.039-4.942 11.039-11.039v-19.366c.001-6.097-4.942-11.04-11.039-11.04z" fill="#23272b"/></svg>