<svg height="496pt" viewBox="0 0 496 496" width="496pt" xmlns="http://www.w3.org/2000/svg" xmlns:xlink="http://www.w3.org/1999/xlink"><linearGradient id="a" gradientUnits="userSpaceOnUse" x1="248" x2="248" y1="496" y2="0"><stop offset="0" stop-color="#9f2fff"/><stop offset="1" stop-color="#0bb1d3"/></linearGradient><path d="m464 0h-120c-13.128906 0-24.703125 6.449219-32 16.246094-7.296875-9.796875-18.871094-16.246094-32-16.246094h-120v32h-32v113.449219c-45.328125 7.648437-80 47.078125-80 94.550781v64c0 17.648438 14.351562 32 32 32h4.710938c4.144531 10.199219 10.832031 19.089844 19.289062 25.878906v16.105469l-63.519531 18.328125c-23.832031 6.863281-40.480469 28.992188-40.480469 53.800781v45.886719h288v-45.886719c0-24.808593-16.648438-46.929687-40.480469-53.808593l-63.519531-18.320313v-16.105469c8.457031-6.789062 15.144531-15.679687 19.289062-25.878906h4.710938c17.648438 0 32-14.351562 32-32v-16h32.808594c3.710937 18.230469 19.878906 32 39.191406 32s35.480469-13.769531 39.191406-32h16.808594v176c0 17.648438 14.351562 32 32 32s32-14.351562 32-32v-176h64v-256h-32zm-120 16h104v224h-16v-9.296875l-13.878906-41.648437c-2.609375-7.808594-9.890625-13.054688-18.121094-13.054688s-15.511719 5.246094-18.121094 13.054688l-13.878906 41.648437v9.296875h-48v-200c0-13.230469 10.769531-24 24-24zm40 384h32v16h-32zm0-16v-144h32v144zm3.097656-160 9.957032-29.878906c.839843-2.535156 5.042968-2.535156 5.882812 0l9.964844 29.878906zm-107.097656-208c13.230469 0 24 10.769531 24 24v200h-64c0-41.703125-26.777344-77.175781-64-90.398438v-133.601562zm-136 32h16v97.449219c-5.214844-.882813-10.535156-1.449219-16-1.449219zm0 112c44.113281 0 80 35.886719 80 80v36.449219c-4.726562-2.753907-10.144531-4.449219-16-4.449219v-16h-8c-24.070312 0-47.9375-7.960938-67.199219-22.398438l-6.769531-5.074218-7.375 11.066406c-6.847656 10.269531-18.3125 16.40625-30.65625 16.40625h-8v16c-5.855469 0-11.273438 1.695312-16 4.449219v-36.449219c0-44.113281 35.886719-80 80-80zm-64 160c-8.824219 0-16-7.175781-16-16s7.175781-16 16-16v24c0 2.710938.222656 5.375.550781 8zm29.679688 72.992188 22.34375 22.34375-23.632813 18.902343-10.789063-37.757812zm-93.679688 57.121093c0-17.722656 11.886719-33.519531 28.910156-38.433593l37.3125-10.757813 17.386719 60.839844 36.390625-29.113281v47.351562h-56v-32h-16v32h-48zm256 0v29.886719h-48v-32h-16v32h-56v-47.351562l36.390625 29.113281 17.386719-60.839844 37.3125 10.757813c17.023437 4.914062 28.910156 20.710937 28.910156 38.433593zm-81.601562-53.632812-10.789063 37.757812-23.632813-18.902343 22.34375-22.34375zm-22.398438-15.792969-24 24-24-24v-9.398438c7.414062 3.015626 15.511719 4.710938 24 4.710938s16.585938-1.695312 24-4.710938zm24-68.6875c0 26.472656-21.527344 48-48 48s-48-21.527344-48-48v-40.609375c13.496094-2.046875 25.695312-9.246094 34.03125-20.214844 18.464844 12.015625 39.984375 19.167969 61.96875 20.566407zm16 8h-.550781c.328125-2.625.550781-5.289062.550781-8v-24c8.824219 0 16 7.175781 16 16s-7.175781 16-16 16zm128-48v8c0 13.230469-10.769531 24-24 24s-24-10.769531-24-24v-8h-48v-16h128v16zm64 208c-8.824219 0-16-7.175781-16-16v-32h32v32c0 8.824219-7.175781 16-16 16zm80-432v224h-48v-16h32v-208zm-48 0h-96v-16h96zm0 48h-96v64h96zm-16 48h-64v-32h64zm16-64h-96v-16h96zm-144-48h-96v64h96zm-16 48h-64v-32h64zm16 48h-96v-16h96zm-48 16h48v16h-48zm16 32h32v16h-32zm0 32h32v16h-32zm0 0" fill="url(#a)"/></svg>